<svg xmlns="http://www.w3.org/2000/svg" viewBox="0 0 242.49 242.49"><defs><style>.cls-1{fill:#397bff;}</style></defs><title>资源 1</title><g id="图层_2" data-name="图层 2"><g id="图层_1-2" data-name="图层 1"><path class="cls-1" d="M174.13,66.3a38.23,38.23,0,0,0-36.85,28.09l-.76,2.79a10.31,10.31,0,0,0,9.94,13h40.21a10.31,10.31,0,0,1,9.94,13l-6.44,23.44a10.32,10.32,0,0,1-9.95,7.58H128.67a10.31,10.31,0,0,0-9.94,7.58L99.42,232.1a7.45,7.45,0,0,0,6.18,9.38,122.89,122.89,0,0,0,35.5-.6c53.72-8.67,95.48-53.32,100.79-107.48a121.56,121.56,0,0,0-5.54-50.27A24.39,24.39,0,0,0,213.27,66.3Z"/><path class="cls-1" d="M49.73,196.52,83.89,72.29a71.23,71.23,0,0,1,68.68-52.35h23.55a3.21,3.21,0,0,0,1.46-6.06A120.57,120.57,0,0,0,121.21,0C54.26,0-1.75,57.61,0,124.54a120.74,120.74,0,0,0,30.1,76.69C36.11,208,47.33,205.26,49.73,196.52Z"/></g></g></svg>